Music_JohtoGymBattle:
	channel_count 3
	channel 1, Music_JohtoGymBattle_Ch1
	channel 2, Music_JohtoGymBattle_Ch2
	channel 3, Music_JohtoGymBattle_Ch3

Music_JohtoGymBattle_Ch1:
	tempo 101
	volume 7, 7
	duty_cycle 3
	pitch_offset 2
	vibrato 18, 1, 5
	note_type 12, 11, 2
.loop1:
	octave 3
	note As, 1
	note A_, 1
	note Gs, 1
	note A_, 1
	sound_loop 4, .loop1
.loop2:
	note Cs, 1
	note C_, 1
	octave 2
	note As, 1
	octave 3
	note C_, 1
	sound_loop 3, .loop2
	volume_envelope 4, -3
	note Cs, 4
	volume_envelope 11, 2
	note D_, 6
	note Ds, 6
	note C_, 4
	note F_, 6
	note D_, 6
	note Ds, 4
	note D_, 6
	note Ds, 6
	note C_, 4
	note F_, 6
	note G_, 6
	volume_envelope 11, 7
	note C_, 4
	volume_envelope 11, 2
	note G_, 6
	note Gs, 6
	note F_, 4
	note Gs, 6
	note F_, 6
	note Gs, 4
	note G_, 6
	note Gs, 6
	note F_, 4
	note Gs, 6
	octave 4
	note C_, 6
	octave 3
	note Gs, 2
	note F_, 2
.mainloop:
	volume_envelope 11, 5
	note D_, 6
	note G_, 6
	note F_, 2
	note G_, 2
	note Gs, 4
	note G_, 4
	note F_, 4
	note G_, 4
	volume_envelope 11, 7
	note Gs, 12
	volume_envelope 11, 2
	note G_, 4
	volume_envelope 11, 7
	octave 4
	note Cs, 12
	volume_envelope 11, 2
	note C_, 4
	volume_envelope 11, 5
	octave 3
	note D_, 6
	note G_, 6
	note F_, 2
	note G_, 2
	note Gs, 4
	note G_, 4
	note F_, 4
	note G_, 4
	volume_envelope 11, 7
	note Gs, 8
	note G_, 8
	note F_, 8
	note Ds, 8
	volume_envelope 7, 0
	note C_, 8
	volume_envelope 7, 7
	note C_, 8
	volume_envelope 11, 4
	note Ds, 2
	note E_, 2
	note F_, 6
	note G_, 2
	note Ds, 4
	volume_envelope 7, 7
	octave 2
	note As, 8
	note As, 8
	volume_envelope 12, 5
	octave 3
	note G_, 2
	note Gs, 2
	note As, 6
	note As, 2
	note Gs, 4
	volume_envelope 12, 7
	note G_, 8
	note F_, 4
	note E_, 2
	note Cs, 2
	volume_envelope 10, 0
	note C_, 8
	volume_envelope 10, 7
	note C_, 8
	volume_envelope 11, 2
	note F_, 6
	note F_, 4
	note E_, 2
	note F_, 4
	note F_, 6
	note F_, 6
	note F_, 2
	note Gs, 2
	note E_, 6
	note E_, 4
	note F_, 2
	note E_, 2
	note Cs, 2
	note C_, 6
	note C_, 6
	note C_, 4
	note F_, 6
	note F_, 2
	note Gs, 2
	note E_, 2
	note F_, 2
	note Gs, 2
	note F_, 2
	note C_, 4
	note F_, 6
	note E_, 2
	note Gs, 2
	note E_, 2
	note G_, 4
	note E_, 4
	note F_, 2
	note E_, 2
	note F_, 2
	note G_, 6
	note G_, 4
	octave 4
	note C_, 2
	octave 3
	note G_, 2
	note C_, 2
	note C_, 6
	note C_, 6
	note C_, 4
	note Cs, 6
	note Cs, 6
	note Cs, 4
	note D_, 6
	note D_, 6
	note D_, 4
	note Ds, 6
	note Ds, 6
	note Ds, 4
	volume_envelope 8, 0
	note G_, 16
	volume_envelope 9, 0
	note Gs, 16
	volume_envelope 10, 0
	note A_, 8
	note As, 2
	note A_, 2
	note Gs, 2
	note A_, 2
	volume_envelope 11, 0
	note As, 8
	note B_, 2
	note As, 2
	note A_, 2
	octave 4
	note Cs, 2
	volume_envelope 11, 7
	note C_, 8
	note Cs, 4
	note C_, 4
	octave 3
	note Gs, 2
	octave 4
	note C_, 2
	octave 3
	note Gs, 2
	octave 4
	note Ds, 2
	octave 3
	note Gs, 2
	octave 4
	note Cs, 2
	octave 3
	note Gs, 2
	octave 4
	note C_, 2
	note Gs, 4
	note Ds, 4
	note Gs, 4
	note Ds, 4
	note Ds, 4
	octave 3
	note Gs, 4
	octave 4
	note Ds, 4
	octave 3
	note Gs, 4
	note Gs, 8
	note A_, 4
	note Gs, 4
	note Ds, 2
	note Gs, 2
	note Ds, 2
	octave 4
	note Cs, 2
	octave 3
	note Ds, 2
	note A_, 2
	note Ds, 2
	note G_, 2
	octave 4
	note Cs, 4
	octave 3
	note Gs, 4
	octave 4
	note Cs, 4
	octave 3
	note Gs, 4
	note Gs, 4
	note Cs, 4
	note Gs, 4
	note Cs, 4
	note B_, 8
	note A_, 8
	note Gs, 8
	note Fs, 8
	volume_envelope 11, 4
	note A_, 4
	octave 4
	note Cs, 4
	octave 3
	note B_, 4
	octave 4
	note E_, 4
	volume_envelope 9, 2
	note Ds, 2
	note Ds, 2
	note Ds, 2
	note Ds, 2
	volume_envelope 11, 2
	note Ds, 2
	note Ds, 2
	note Ds, 2
	note Ds, 2
	volume_envelope 12, 2
	note Ds, 16
	volume_envelope 5, 0
	octave 3
	note C_, 16
	note F_, 16
	note E_, 16
	volume_envelope 9, 7
	note Ds, 10
	volume_envelope 11, 4
	octave 2
	note As, 2
	octave 3
	note Ds, 2
	note Fs, 2
	sound_loop 0, .mainloop

Music_JohtoGymBattle_Ch2:
	duty_cycle 3
	vibrato 8, 3, 6
	pitch_offset 1
	note_type 12, 12, 2
.loop1:
	octave 4
	note Fs, 1
	note F_, 1
	note E_, 1
	note As, 1
	sound_loop 4, .loop1
.loop2:
	note Fs, 1
	note F_, 1
	note Fs, 1
	note As, 1
	sound_loop 4, .loop2
	note A_, 6
	octave 3
	note As, 6
	note G_, 4
	octave 4
	note D_, 6
	octave 3
	note A_, 6
	note As, 4
	note A_, 6
	note As, 6
	note G_, 4
	octave 4
	note D_, 6
	note Ds, 6
	volume_envelope 11, 0
	octave 3
	note Ds, 4
	volume_envelope 12, 2
	octave 4
	note D_, 2
	volume_envelope 9, 2
	octave 3
	note D_, 2
	note D_, 2
	volume_envelope 12, 2
	octave 4
	note Ds, 4
	volume_envelope 9, 2
	octave 3
	note D_, 2
	volume_envelope 12, 2
	octave 4
	note C_, 4
	note G_, 2
	note_type 12, 9, 2
	octave 3
	note D_, 2
	note D_, 2
	volume_envelope 12, 2
	octave 4
	note D_, 4
	volume_envelope 9, 2
	octave 3
	note D_, 2
	volume_envelope 12, 2
	octave 4
	note Ds, 2
	volume_envelope 9, 2
	octave 3
	note Ds, 2
	volume_envelope 12, 2
	octave 4
	note D_, 2
	volume_envelope 9, 2
	octave 3
	note D_, 2
	note D_, 2
	volume_envelope 12, 2
	octave 4
	note Ds, 4
	volume_envelope 9, 2
	octave 3
	note D_, 2
	volume_envelope 12, 2
	octave 4
	note C_, 2
	volume_envelope 9, 2
	octave 3
	note Ds, 2
	volume_envelope 12, 2
	octave 4
	note G_, 2
	volume_envelope 9, 2
	octave 3
	note F_, 2
	note F_, 2
	volume_envelope 12, 2
	octave 4
	note Gs, 2
	volume_envelope 9, 2
	octave 3
	note F_, 2
	note F_, 2
	volume_envelope 12, 2
	octave 4
	note Fs, 2
	volume_envelope 11, 2
	octave 3
	note Gs, 1
	note A_, 1
.mainloop:
	volume_envelope 12, 7
	note As, 8
	volume_envelope 12, 4
	octave 4
	note D_, 2
	note C_, 2
	octave 3
	note As, 2
	octave 4
	note C_, 2
	volume_envelope 12, 7
	note Cs, 8
	volume_envelope 12, 4
	note F_, 2
	note Ds, 2
	note Cs, 2
	note Ds, 2
	volume_envelope 11, 0
	note F_, 6
	volume_envelope 11, 7
	note F_, 6
	volume_envelope 12, 2
	note Ds, 4
	volume_envelope 11, 0
	note Gs, 6
	volume_envelope 11, 7
	note Gs, 6
	volume_envelope 12, 2
	note F_, 4
	volume_envelope 12, 7
	octave 3
	note As, 8
	volume_envelope 12, 4
	octave 4
	note D_, 2
	note C_, 2
	octave 3
	note As, 2
	octave 4
	note C_, 2
	volume_envelope 12, 7
	note Cs, 8
	volume_envelope 12, 4
	note F_, 2
	note Ds, 2
	note Cs, 2
	note Ds, 2
	volume_envelope 11, 0
	note Cs, 16
	volume_envelope 11, 7
	note Cs, 16
	volume_envelope 10, 4
	octave 3
	note F_, 6
	note Ds, 6
	note F_, 4
	volume_envelope 12, 6
	octave 4
	note C_, 6
	octave 3
	note As, 6
	octave 4
	note C_, 4
	volume_envelope 10, 4
	octave 3
	note Cs, 6
	note C_, 6
	note Cs, 4
	volume_envelope 12, 6
	octave 4
	note Cs, 6
	note C_, 6
	note Cs, 4
	volume_envelope 3, -4
	note C_, 10
	volume_envelope 11, 7
	note C_, 6
	volume_envelope 11, 0
	note E_, 8
	volume_envelope 11, 7
	note E_, 8
	volume_envelope 11, 0
	octave 3
	note Cs, 16
	octave 2
	note As, 8
	octave 3
	note Cs, 6
	note Ds, 2
	note C_, 16
	note E_, 16
	volume_envelope 10, 0
	octave 5
	note Cs, 4
	volume_envelope 10, 7
	octave 5
	note Cs, 12
	volume_envelope 11, 7
	octave 4
	note As, 8
	octave 5
	note Cs, 6
	note Ds, 2
	volume_envelope 10, 0
	note C_, 8
	volume_envelope 10, 7
	note C_, 8
	volume_envelope 3, -6
	note E_, 6
	volume_envelope 10, 6
	note E_, 10
	volume_envelope 12, 2
	octave 3
	note F_, 6
	note F_, 6
	note F_, 4
	note Fs, 6
	note Fs, 6
	note Fs, 4
	note G_, 6
	note G_, 6
	note G_, 4
	note Gs, 6
	note Gs, 6
	note Gs, 4
	volume_envelope 9, 0
	octave 4
	note C_, 16
	volume_envelope 10, 0
	note Cs, 16
	volume_envelope 11, 0
	note D_, 16
	volume_envelope 11, 7
	note Ds, 8
	volume_envelope 4, -4
	note Ds, 6
	volume_envelope 12, 2
	note Fs, 1
	note G_, 1
	volume_envelope 12, 7
	note Gs, 8
	note A_, 2
	note Gs, 2
	note Fs, 2
	note A_, 2
	note Gs, 4
	octave 5
	note C_, 4
	octave 4
	note A_, 4
	note Gs, 4
	octave 5
	note Ds, 4
	octave 4
	note Gs, 4
	octave 5
	note Ds, 4
	octave 4
	note Gs, 4
	octave 5
	note Ds, 2
	note Cs, 2
	note C_, 2
	note Cs, 2
	note C_, 2
	octave 4
	note A_, 2
	note Gs, 2
	note A_, 2
	note Ds, 8
	note E_, 2
	note Ds, 2
	note Cs, 2
	note E_, 2
	note Ds, 4
	note Gs, 4
	note E_, 4
	note Cs, 4
	note Gs, 4
	note Cs, 4
	note Gs, 4
	note Cs, 4
	note A_, 2
	note Gs, 2
	note Fs, 2
	note E_, 2
	note Ds, 2
	note E_, 2
	note Ds, 2
	note Cs, 2
	note Ds, 8
	note Cs, 8
	octave 3
	note B_, 8
	note A_, 8
	octave 4
	note Ds, 4
	note Gs, 4
	note E_, 4
	note A_, 4
	volume_envelope 12, 0
	note Gs, 8
	volume_envelope 12, 7
	note Gs, 8
	volume_envelope 12, 2
	note Gs, 16
	volume_envelope 8, 0
	octave 3
	note F_, 16
	octave 4
	note C_, 16
	octave 3
	note B_, 16
	note G_, 16
	sound_loop 0, .mainloop

Music_JohtoGymBattle_Ch3:
	note_type 12, 1, -1
	octave 4
	note F_, 1
	rest 1
	octave 3
	note A_, 2
	octave 4
	note F_, 1
	rest 1
	octave 3
	note Gs, 2
	octave 4
	note F_, 1
	rest 1
	octave 3
	note G_, 2
	octave 4
	note F_, 1
	rest 1
	octave 3
	note Fs, 2
	octave 4
	note Gs, 1
	rest 1
	octave 3
	note F_, 2
	octave 4
	note Gs, 1
	rest 1
	octave 3
	note E_, 2
	note F_, 2
	note G_, 2
	note Gs, 4
	sound_call .sub1
	note G_, 2
	note D_, 2
	note F_, 2
	note G_, 2
	note Gs, 2
	note Gs, 2
	note G_, 2
	note F_, 2
	note G_, 2
	note D_, 2
	note F_, 2
	note G_, 2
	note Gs, 2
	note Ds, 2
	note Fs, 4
	sound_call .sub1
	note G_, 2
	note D_, 2
	note F_, 2
	note G_, 2
	note Gs, 2
	note Gs, 2
	note G_, 2
	note F_, 2
	note G_, 2
	note D_, 2
	note F_, 2
	note G_, 2
	note Gs, 2
	octave 4
	note C_, 2
	octave 3
	note As, 2
	note Gs, 2
.mainloop:
	sound_call .sub2
	sound_call .sub2
	sound_call .sub3
	note Cs, 2
	note Gs, 2
	note Cs, 2
	note Gs, 2
	note Cs, 2
	note As, 2
	note A_, 2
	note Gs, 2
	sound_call .sub2
	note D_, 2
	note G_, 2
	note D_, 2
	note G_, 2
	note D_, 2
	note G_, 2
	note Gs, 2
	note G_, 2
	sound_call .sub3
	sound_call .sub3
	note C_, 2
	note G_, 2
	note As, 2
	note C_, 2
	note Ds, 2
	note F_, 2
	note G_, 2
	note As, 2
	sound_call .sub4
	sound_call .sub3
	sound_call .sub5
	octave 3
	note G_, 2
	note Gs, 2
	note F_, 2
	sound_call .sub4
	note C_, 2
	note G_, 2
	note C_, 2
	note G_, 2
	note C_, 2
	note E_, 2
	note F_, 2
	note G_, 2
	sound_call .sub3
	sound_call .sub5
	octave 3
	note C_, 2
	note Cs, 2
	note Gs, 2
	sound_call .sub4
	note C_, 2
	note G_, 2
	note C_, 2
	note G_, 2
	note F_, 2
	note E_, 2
	note F_, 2
	note G_, 2
	sound_call .sub3
	sound_call .sub5
	octave 3
	note F_, 2
	octave 2
	note As, 2
	octave 3
	note Gs, 2
	sound_call .sub4
	note C_, 2
	note G_, 2
	note C_, 2
	octave 4
	note C_, 2
	octave 3
	note As, 2
	note G_, 2
	note F_, 2
	note G_, 2
	sound_call .sub6
	rest 2
	sound_call .sub7
	octave 4
	note Cs, 2
	sound_call .sub8
	rest 2
	note Ds, 2
	note As, 2
	octave 4
	note Ds, 2
	octave 3
	note Ds, 2
	note As, 2
	octave 4
	note Ds, 2
	octave 3
	note Ds, 2
	octave 4
	note Ds, 2
	sound_call .sub6
	note G_, 2
	sound_call .sub7
	note Gs, 2
	sound_call .sub8
	note A_, 2
	octave 4
	note Ds, 2
	octave 3
	note As, 2
	note Ds, 2
	octave 4
	note Ds, 2
	octave 3
	note Ds, 2
	octave 4
	note Ds, 2
	note D_, 4
	sound_call .sub9
	note Ds, 2
	note Gs, 2
	note Ds, 2
	octave 4
	note Cs, 2
	octave 3
	note Ds, 2
	note A_, 2
	note Ds, 2
	note Gs, 2
	sound_call .sub9
	note Ds, 2
	note Gs, 2
	note Ds, 2
	note Gs, 2
	note Ds, 2
	note A_, 2
	note Gs, 2
	note Fs, 2
	sound_call .sub10
	note Cs, 2
	note Fs, 2
	note Cs, 2
	octave 4
	note Cs, 2
	octave 3
	note Cs, 2
	note A_, 2
	note Cs, 2
	note G_, 2
	sound_call .sub10
	note Cs, 2
	note Fs, 2
	note Cs, 2
	note Fs, 2
	note Cs, 2
	note Ds, 2
	note E_, 2
	note A_, 2
	sound_call .sub9
	note Ds, 2
	note Gs, 2
	note Ds, 2
	note Gs, 2
	note Ds, 2
	note Gs, 2
	note A_, 2
	octave 4
	note Cs, 2
	octave 3
	note Ds, 2
	note Gs, 2
	note Ds, 2
	note A_, 2
	note Ds, 2
	note B_, 2
	note Ds, 2
	octave 4
	note Cs, 2
	octave 3
	note Gs, 2
	note Ds, 2
	note Fs, 2
	note Gs, 2
	note A_, 2
	note A_, 2
	note Gs, 2
	note Fs, 2
	note Gs, 2
	note Ds, 2
	note Fs, 2
	note Gs, 2
	note Fs, 2
	note Fs, 2
	note E_, 2
	note Fs, 2
	sound_call .sub11
	note F_, 2
	note C_, 2
	note Ds, 2
	note F_, 2
	note Ds, 2
	note Ds, 2
	note Cs, 2
	note Ds, 2
	sound_call .sub11
	note F_, 2
	note C_, 2
	note Ds, 2
	note F_, 2
	note Ds, 2
	note Fs, 2
	note F_, 2
	note Ds, 2
	sound_loop 0, .mainloop

.sub1:
	note G_, 2
	note D_, 2
	note F_, 2
	note G_, 2
	note Gs, 2
	note Gs, 2
	note G_, 2
	note F_, 2
	note G_, 2
	note D_, 2
	note F_, 2
	note G_, 2
	note F_, 2
	note F_, 2
	note Ds, 2
	note F_, 2
	sound_ret

.sub2:
.sub2loop1:
	note D_, 2
	note G_, 2
	sound_loop 4, .sub2loop1
	sound_ret

.sub3:
.sub3loop1:
	note Cs, 2
	note Gs, 2
	sound_loop 4, .sub3loop1
	sound_ret

.sub4:
.sub4loop1:
	note C_, 2
	note G_, 2
	sound_loop 4, .sub4loop1
	sound_ret

.sub5:
	octave 2
	note As, 2
	octave 3
	note F_, 2
	octave 2
	note As, 2
	octave 3
	note F_, 2
	octave 2
	note As, 2
	sound_ret

.sub6:
	octave 3
	note C_, 2
	note G_, 2
	octave 4
	note C_, 2
	octave 3
	note C_, 2
	note G_, 2
	octave 4
	note C_, 2
	octave 3
	note C_, 2
	sound_ret

.sub7:
	note Cs, 2
	note Gs, 2
	octave 4
	note Cs, 2
	octave 3
	note Cs, 2
	note Gs, 2
	octave 4
	note Cs, 2
	octave 3
	note Cs, 2
	sound_ret

.sub8:
	octave 3
	note D_, 2
	note A_, 2
	octave 4
	note D_, 2
	octave 3
	note D_, 2
	note A_, 2
	octave 4
	note D_, 2
	octave 3
	note D_, 2
	sound_ret

.sub9:
.sub9loop1:
	octave 3
	note Ds, 2
	note Gs, 2
	sound_loop 4, .sub9loop1
	sound_ret

.sub10:
.sub10loop1:
	note Cs, 2
	note Fs, 2
	sound_loop 4, .sub10loop1
	sound_ret

.sub11:
	note F_, 2
	note C_, 2
	note Ds, 2
	note F_, 2
	note Fs, 2
	note Fs, 2
	note F_, 2
	note Ds, 2
	sound_ret
