Music_Printer:
	channel_count 1
	channel 3, Music_Printer_Ch3

Music_Printer_Ch3:
	tempo 256
	note_type 12, 2, 0
	octave 4
	note B_, 6
	octave 5
	note Cs, 1
	rest 1
	octave 4
	note B_, 6
	octave 5
	note Cs, 1
	rest 1
	octave 4
	note B_, 1
	rest 1
	octave 5
	note E_, 1
	rest 1
	note Ds, 1
	rest 1
	note Cs, 1
	rest 1
	octave 4
	note B_, 1
	rest 1
	note A_, 1
	rest 1
	note Gs, 1
	rest 1
	note Fs, 1
	rest 1
.mainloop:
	note E_, 1
	rest 1
	note B_, 1
	rest 1
	note E_, 1
	rest 1
	note B_, 1
	rest 1
	note E_, 1
	rest 1
	note B_, 1
	rest 1
	note E_, 1
	rest 1
	note B_, 1
	rest 1
	note E_, 1
	rest 1
	note B_, 1
	rest 1
	note E_, 1
	rest 1
	note B_, 1
	rest 1
	note E_, 1
	rest 1
	note B_, 1
	rest 1
	note E_, 1
	rest 1
	note B_, 1
	rest 1
	note Fs, 1
	rest 1
	note A_, 1
	rest 1
	note Fs, 1
	rest 1
	note A_, 1
	rest 1
	note Fs, 1
	rest 1
	octave 5
	note Cs, 1
	note C_, 1
	note Cs, 1
	rest 1
	octave 4
	note Fs, 1
	rest 1
	note E_, 1
	rest 1
	note Gs, 1
	rest 1
	note E_, 1
	rest 1
	note Gs, 1
	rest 1
	note E_, 1
	rest 1
	octave 5
	note E_, 1
	note Ds, 1
	note E_, 1
	rest 1
	octave 4
	note Ds, 1
	rest 1
	note E_, 1
	rest 1
	note B_, 1
	rest 1
	note E_, 1
	rest 1
	note B_, 1
	rest 1
	note E_, 1
	rest 1
	note B_, 1
	rest 1
	note E_, 1
	rest 1
	note B_, 1
	rest 1
	note E_, 1
	rest 1
	note B_, 1
	rest 1
	note E_, 1
	rest 1
	note B_, 1
	rest 1
	note E_, 1
	rest 1
	note B_, 1
	rest 1
	note E_, 1
	rest 1
	note B_, 1
	rest 1
	note Fs, 1
	rest 1
	note A_, 1
	rest 1
	note Fs, 1
	rest 1
	note A_, 1
	rest 1
	note B_, 1
	rest 1
	note A_, 1
	rest 1
	note Gs, 1
	rest 1
	note Fs, 1
	rest 1
	note E_, 1
	rest 1
	note B_, 1
	rest 1
	note E_, 1
	rest 1
	note B_, 1
	rest 1
	note E_, 1
	rest 1
	octave 3
	note B_, 1
	rest 1
	octave 4
	note Cs, 1
	rest 1
	note D_, 1
	rest 1
	note Ds, 1
	rest 1
	note Fs, 1
	rest 1
	octave 3
	note B_, 1
	rest 1
	octave 4
	note Fs, 1
	rest 1
	note Ds, 1
	rest 1
	note Fs, 1
	rest 1
	octave 3
	note B_, 1
	rest 1
	octave 4
	note Fs, 1
	rest 1
	note E_, 1
	rest 1
	note Gs, 1
	rest 1
	octave 3
	note B_, 1
	rest 1
	octave 4
	note Gs, 1
	rest 1
	note E_, 1
	rest 1
	note Gs, 1
	rest 1
	octave 3
	note B_, 1
	rest 1
	octave 4
	note Gs, 1
	rest 1
	note Fs, 1
	rest 1
	note A_, 1
	rest 1
	note Cs, 1
	rest 1
	note A_, 1
	rest 1
	note Fs, 1
	rest 1
	note A_, 1
	rest 1
	note Cs, 1
	rest 1
	note A_, 1
	rest 1
	note B_, 1
	note As, 1
	note B_, 1
	rest 1
	note E_, 1
	rest 1
	note Fs, 1
	rest 1
	note Gs, 1
	rest 1
	octave 3
	note B_, 1
	rest 1
	octave 4
	note Cs, 1
	rest 1
	note D_, 1
	rest 1
	note Ds, 1
	rest 1
	note Fs, 1
	rest 1
	octave 3
	note B_, 1
	rest 1
	octave 4
	note Fs, 1
	rest 1
	note Ds, 1
	rest 1
	note Fs, 1
	rest 1
	octave 3
	note B_, 1
	rest 1
	octave 4
	note Fs, 1
	rest 1
	note E_, 1
	rest 1
	note Gs, 1
	rest 1
	octave 3
	note B_, 1
	rest 1
	octave 4
	note Gs, 1
	rest 1
	note E_, 1
	rest 1
	note Gs, 1
	rest 1
	octave 3
	note B_, 1
	rest 1
	octave 4
	note Gs, 1
	rest 1
	note Fs, 1
	rest 1
	note A_, 1
	rest 1
	note Cs, 1
	rest 1
	note A_, 1
	rest 1
	note Fs, 1
	rest 1
	note A_, 1
	rest 1
	note Fs, 1
	rest 1
	note Ds, 1
	rest 1
	note B_, 1
	rest 1
	note B_, 1
	rest 1
	note A_, 1
	rest 1
	note A_, 1
	rest 1
	note Gs, 1
	rest 1
	octave 3
	note B_, 1
	rest 1
	octave 4
	note Cs, 1
	rest 1
	note Ds, 1
	rest 1
	sound_loop 0, .mainloop
