Music_ProfOaksPokemonTalk:
	channel_count 3
	channel 1, Music_ProfOaksPokemonTalk_Ch1
	channel 2, Music_ProfOaksPokemonTalk_Ch2
	channel 3, Music_ProfOaksPokemonTalk_Ch3

	db $3 ; unused, leftover from a channel 4

Music_ProfOaksPokemonTalk_Ch1:
	tempo 164
	volume 7, 7
	stereo_panning FALSE, TRUE
	vibrato 6, 2, 5
	duty_cycle 1
	note_type 12, 9, 4
	rest 8
	octave 3
	note B_, 1
	octave 4
	note Cs, 1
	note Ds, 1
	note E_, 1
	note Cs, 1
	note Ds, 1
	note E_, 1
	note Fs, 1
.mainloop:
	note Ds, 6
	note Cs, 1
	octave 3
	note B_, 1
	note Fs, 1
	note Gs, 1
	note Fs, 1
	rest 1
	note Fs, 1
	rest 1
	note A_, 1
	note As, 1
	note B_, 2
	note Fs, 1
	note Gs, 1
	note Fs, 1
	rest 1
	note Fs, 1
	rest 1
	note Fs, 1
	note Gs, 1
	note Fs, 1
	rest 1
	note As, 4
	octave 4
	note Ds, 6
	note Cs, 1
	octave 3
	note B_, 1
	note Gs, 1
	note B_, 1
	note Ds, 1
	rest 1
	note Ds, 1
	rest 1
	note As, 1
	note B_, 1
	note Fs, 1
	note As, 1
	note Ds, 1
	rest 1
	note Ds, 1
	rest 1
	note Fs, 1
	note As, 1
	note Ds, 1
	rest 1
	note Ds, 1
	rest 1
	note As, 4
	note E_, 2
	octave 2
	note B_, 1
	octave 3
	note E_, 1
	note Gs, 2
	note E_, 1
	note Gs, 1
	note B_, 1
	octave 4
	note Cs, 1
	octave 3
	note B_, 1
	octave 4
	note Cs, 1
	octave 3
	note B_, 4
	note Fs, 2
	note Ds, 1
	note Fs, 1
	note B_, 2
	note Fs, 1
	note B_, 1
	octave 4
	note Ds, 1
	note E_, 1
	note Ds, 1
	note E_, 1
	note Ds, 4
	octave 3
	note As, 2
	octave 4
	note Cs, 2
	note E_, 2
	note Fs, 2
	note Cs, 2
	note E_, 2
	note Fs, 2
	note E_, 2
	note Cs, 2
	octave 3
	note As, 1
	rest 1
	note B_, 1
	rest 1
	octave 4
	note Cs, 1
	rest 1
	note Ds, 1
	rest 1
	note E_, 1
	rest 1
	note F_, 1
	rest 1
	note Fs, 1
	rest 1
	sound_loop 0, .mainloop

Music_ProfOaksPokemonTalk_Ch2:
	vibrato 8, 2, 4
	duty_cycle 3
	note_type 12, 10, 7
	stereo_panning TRUE, TRUE
	octave 3
	note B_, 1
	octave 4
	note Cs, 1
	note Ds, 1
	note E_, 1
	note Cs, 1
	note Ds, 1
	note E_, 1
	note Fs, 1
	note Ds, 1
	note E_, 1
	note Fs, 1
	note Gs, 1
	note E_, 1
	note Fs, 1
	note Gs, 1
	note As, 1
.mainloop:
	note B_, 6
	note As, 1
	note Gs, 1
	note Fs, 6
	note F_, 1
	note Fs, 1
	note Gs, 4
	note Fs, 8
	note Fs, 4
	note Gs, 6
	note Fs, 1
	note E_, 1
	note Ds, 6
	note D_, 1
	note Ds, 1
	note E_, 4
	note Ds, 8
	note Ds, 4
	note E_, 6
	octave 3
	note B_, 1
	octave 4
	note E_, 1
	note Gs, 8
	note Fs, 6
	note Ds, 1
	note Fs, 1
	note B_, 8
	note As, 4
	note B_, 2
	note As, 2
	note Gs, 4
	note As, 2
	note Gs, 2
	note Fs, 2
	note Cs, 1
	rest 1
	note Ds, 1
	rest 1
	note E_, 1
	rest 1
	note Fs, 1
	rest 1
	note G_, 1
	rest 1
	note Gs, 1
	rest 1
	note As, 1
	rest 1
	sound_loop 0, .mainloop

Music_ProfOaksPokemonTalk_Ch3:
	vibrato 6, 3, 8
	note_type 12, 2, 5
	stereo_panning TRUE, FALSE
	rest 8
	octave 3
	note Fs, 1
	note E_, 1
	note Ds, 1
	note Cs, 1
	note E_, 1
	note Ds, 1
	note Cs, 1
	octave 2
	note As, 1
.mainloop:
	note B_, 6
	octave 3
	note Ds, 1
	note Fs, 1
	note B_, 6
	note Ds, 1
	note Cs, 1
	octave 2
	note B_, 4
	octave 3
	note B_, 8
	octave 4
	note Ds, 4
	octave 3
	note Gs, 6
	note Ds, 1
	note Gs, 1
	octave 2
	note Gs, 6
	octave 3
	note Ds, 1
	note Gs, 1
	note Ds, 6
	note Fs, 2
	note As, 2
	note Gs, 2
	note Fs, 2
	note Ds, 2
	note E_, 2
	rest 4
	note E_, 1
	note E_, 1
	note E_, 1
	rest 1
	note E_, 1
	rest 1
	note B_, 4
	note Fs, 2
	rest 4
	note Fs, 1
	note Fs, 1
	octave 2
	note B_, 1
	rest 1
	note B_, 1
	rest 1
	octave 3
	note B_, 4
	note Fs, 2
	octave 4
	note Fs, 2
	octave 3
	note E_, 2
	octave 4
	note E_, 2
	octave 3
	note Cs, 2
	octave 4
	note Cs, 2
	octave 2
	note As, 2
	octave 3
	note As, 2
	octave 2
	note Fs, 2
	octave 3
	note As, 1
	rest 1
	note Gs, 1
	rest 1
	note Fs, 1
	rest 1
	note E_, 1
	rest 1
	note Ds, 1
	rest 1
	note Cs, 1
	rest 1
	octave 2
	note As, 1
	rest 1
	sound_loop 0, .mainloop
